<svg xmlns="http://www.w3.org/2000/svg" width="1024" height="1024" viewBox="0 0 1024 1024">
  <defs>
    <linearGradient id="bg" x1="0" y1="0" x2="0" y2="1">
      <stop offset="0" stop-color="#7AC3F5"/>
      <stop offset="0.5" stop-color="#2A7FEA"/>
      <stop offset="1" stop-color="#104CA4"/>
    </linearGradient>
    <radialGradient id="topGlow" cx="0.5" cy="0.12" r="0.6">
      <stop offset="0" stop-color="#FFFFFF" stop-opacity="0.22"/>
      <stop offset="1" stop-color="#FFFFFF" stop-opacity="0"/>
    </radialGradient>
    <linearGradient id="docLight" x1="0" y1="0" x2="1" y2="1">
      <stop offset="0" stop-color="#FFFFFF"/>
      <stop offset="1" stop-color="#F0F5FB"/>
    </linearGradient>
    <linearGradient id="beam" x1="0" y1="0" x2="1" y2="0">
      <stop offset="0" stop-color="#7FEBFF" stop-opacity="0"/>
      <stop offset="0.5" stop-color="#C0F6FF"/>
      <stop offset="1" stop-color="#7FEBFF" stop-opacity="0"/>
    </linearGradient>
    <filter id="docShadow" x="-30%" y="-30%" width="160%" height="160%">
      <feGaussianBlur in="SourceAlpha" stdDeviation="22"/>
      <feOffset dy="26"/>
      <feComponentTransfer><feFuncA type="linear" slope="0.42"/></feComponentTransfer>
      <feMerge><feMergeNode/><feMergeNode in="SourceGraphic"/></feMerge>
    </filter>
    <filter id="beamGlow" x="-10%" y="-250%" width="120%" height="600%">
      <feGaussianBlur stdDeviation="9"/>
    </filter>
    <filter id="cornerGlow" x="-80%" y="-80%" width="260%" height="260%">
      <feGaussianBlur stdDeviation="6"/>
    </filter>
    <clipPath id="docClip">
      <rect x="256" y="184" width="512" height="656" rx="36" ry="36"/>
    </clipPath>
  </defs>

  <rect x="0" y="0" width="1024" height="1024" rx="234" ry="234" fill="url(#bg)"/>
  <rect x="0" y="0" width="1024" height="1024" rx="234" ry="234" fill="url(#topGlow)"/>

  <g filter="url(#docShadow)">
    <rect x="256" y="184" width="512" height="656" rx="36" ry="36" fill="url(#docLight)"/>
  </g>

  <g clip-path="url(#docClip)">
    <polygon points="436,184 768,184 768,840 588,840" fill="#D2E1F1"/>
    <line x1="436" y1="184" x2="588" y2="840" stroke="#FFFFFF" stroke-width="2.5" opacity="0.6"/>
  </g>

  <g clip-path="url(#docClip)">
    <rect x="296" y="266" width="432" height="30" rx="8" fill="#2C7BD9"/>
    <rect x="296" y="326" width="372" height="30" rx="8" fill="#2C7BD9"/>
    <rect x="296" y="386" width="412" height="30" rx="8" fill="#2C7BD9"/>
    <rect x="296" y="446" width="300" height="30" rx="8" fill="#2C7BD9"/>
  </g>

  <g clip-path="url(#docClip)">
    <rect x="256" y="516" width="512" height="48" fill="url(#beam)" filter="url(#beamGlow)" opacity="0.9"/>
    <rect x="256" y="536" width="512" height="7" fill="#D6FAFF"/>
  </g>

  <rect x="256" y="184" width="512" height="656" rx="36" ry="36" fill="none" stroke="#FFFFFF" stroke-width="2.5" opacity="0.62"/>

  <g stroke="#8EE3FF" stroke-width="13" stroke-linecap="round" fill="none" filter="url(#cornerGlow)" opacity="0.9">
    <path d="M 216 196 L 216 140 L 272 140"/>
    <path d="M 752 140 L 808 140 L 808 196"/>
    <path d="M 216 828 L 216 884 L 272 884"/>
    <path d="M 752 884 L 808 884 L 808 828"/>
  </g>
  <g stroke="#ECFBFF" stroke-width="6.5" stroke-linecap="round" fill="none">
    <path d="M 216 196 L 216 140 L 272 140"/>
    <path d="M 752 140 L 808 140 L 808 196"/>
    <path d="M 216 828 L 216 884 L 272 884"/>
    <path d="M 752 884 L 808 884 L 808 828"/>
  </g>

  <rect x="3.5" y="3.5" width="1017" height="1017" rx="231" ry="231" fill="none" stroke="#FFFFFF" stroke-width="3" opacity="0.3"/>
</svg>
